# xmcd
#
# Track frame offsets: 
#        150
#        15119
#        27808
#        40800
#        54766
#        70778
#        84233
#        97932
#        111690
#        129174
#        143202
#        159368
#        169267
#        184652
#        200474
#        216921
#        229886
#        241783
#        254653
#        268421
#        283954
#        297993
#        308388
#        326998
#
# Disc length: 4540 seconds
#
# Revision: 0
# Processed by: cddbd v1.5.2PL0 Copyright (c) Steve Scherf et al.
# Submitted via: ExactAudioCopy v0.99pb4
#
DISCID=5511ba18
DTITLE=Wild Canyon - Laugh And Tingle Shiver and Signpost
DYEAR=2014
DGENRE=Country
TTITLE0=Oh Oh Susie
TTITLE1=He Is A Gambler
TTITLE2=The Streets Of Baltimore
TTITLE3=Strollin'
TTITLE4=Things We say Are True
TTITLE5=Oh Lonesome Me
TTITLE6=The Happy Shepherd
TTITLE7=I Call Him King
TTITLE8=Long Black Limousine
TTITLE9=Enchanted Canyon
TTITLE10=A Child's Awakening
TTITLE11=Time To Bum Again
TTITLE12=Grounded
TTITLE13=Getting What He Wanted
TTITLE14=Just To Satisfy You
TTITLE15=Six Days On The Road
TTITLE16=Some Better Changes
TTITLE17=Sally Was a good ole Girl
TTITLE18=Blue Eyes Crying In The Rain
TTITLE19=A Dream That Dared
TTITLE20=A Man Without Friends
TTITLE21=From A Jack To A King
TTITLE22=Oh How Great Must It Be
TTITLE23='t Was An Awful Dream
EXTD=
EXTT0=
EXTT1=
EXTT2=
EXTT3=
EXTT4=
EXTT5=
EXTT6=
EXTT7=
EXTT8=
EXTT9=
EXTT10=
EXTT11=
EXTT12=
EXTT13=
EXTT14=
EXTT15=
EXTT16=
EXTT17=
EXTT18=
EXTT19=
EXTT20=
EXTT21=
EXTT22=
EXTT23=
PLAYORDER=
